<svg version="1.1" id="Layer_1" xmlns="http://www.w3.org/2000/svg" xmlns:xlink="http://www.w3.org/1999/xlink" x="0px" y="0px"
	 width="100%" viewBox="0 0 1024 1024" enable-background="new 0 0 1024 1024" xml:space="preserve">
<path fill="#000000" opacity="1.000000" stroke="none" 
	d="
M572.000000,1025.000000 
	C381.333344,1025.000000 191.166672,1025.000000 1.000000,1025.000000 
	C1.000000,683.666687 1.000000,342.333344 1.000000,1.000000 
	C342.333344,1.000000 683.666687,1.000000 1025.000000,1.000000 
	C1025.000000,342.333344 1025.000000,683.666687 1025.000000,1025.000000 
	C874.166687,1025.000000 723.333313,1025.000000 572.000000,1025.000000 
M746.109375,501.936920 
	C746.109375,501.936920 746.430359,501.954559 746.477722,502.267670 
	C746.596863,502.475677 746.775513,502.565613 747.228821,503.316895 
	C747.355347,503.554871 747.481934,503.792847 747.658691,504.661072 
	C755.713684,517.177979 763.768616,529.694885 771.965759,542.907654 
	C779.551270,554.922119 787.183655,566.907227 794.712036,578.957397 
	C808.273987,600.664856 821.762329,622.418335 835.308899,644.135376 
	C838.008179,648.462646 840.748718,652.770142 843.663208,656.952271 
	C844.271240,657.824768 845.807190,660.883362 846.886658,656.152222 
	C846.822754,655.124573 846.758789,654.096863 846.850830,652.134766 
	C846.853577,644.490234 846.861938,636.845764 846.858032,629.201233 
	C846.841675,597.464050 846.821655,565.726807 846.960327,533.066956 
	C846.915955,517.044617 846.871521,501.022217 846.970947,484.150391 
	C846.909363,475.417206 846.847717,466.683990 846.894470,457.303650 
	C846.826965,456.874390 846.759460,456.445099 846.856140,455.089355 
	C846.798828,445.391327 846.741516,435.693329 846.857544,425.073059 
	C846.785034,412.710449 846.712463,400.347809 846.822021,387.065918 
	C846.760376,375.369873 846.698792,363.673859 846.815918,351.058929 
	C846.767029,340.029663 846.718201,329.000427 846.834351,317.050781 
	C846.834351,277.481628 846.834351,237.912460 846.834351,197.991226 
	C749.323730,198.085785 652.295105,197.888016 554.040649,198.111740 
	C562.804077,212.019409 570.531128,224.311218 578.287170,236.584686 
	C590.364502,255.696304 602.430359,274.815247 614.562378,293.892059 
	C621.198547,304.326874 627.960815,314.681458 634.893066,325.764221 
	C641.397827,335.886108 647.902527,346.007996 654.691345,356.820374 
	C654.944397,357.248596 655.197388,357.676819 655.450195,358.471375 
	C655.572327,358.698792 655.755798,358.853455 656.015198,359.656586 
	C656.979858,361.166077 657.938965,362.679108 658.910095,364.184448 
	C666.684570,376.235474 674.461426,388.285034 682.412842,401.054688 
	C684.707825,404.636658 686.983459,408.231262 689.301636,411.798157 
	C695.192810,420.862579 701.103027,429.914581 707.128540,439.669189 
	C712.750916,448.446686 718.373230,457.224182 724.013367,466.730896 
	C731.156433,478.209381 738.299500,489.687866 745.412964,501.477417 
	C745.412964,501.477417 745.654541,501.675385 745.654541,501.675385 
	C745.654541,501.675385 745.965942,501.649261 746.109375,501.936920 
M380.088074,535.983521 
	C380.088074,535.983521 380.304993,535.954895 380.385315,536.371460 
	C380.528992,536.628052 380.735443,536.815552 381.120544,537.637451 
	C385.752502,544.755188 390.384460,551.872925 395.154968,559.686401 
	C400.440918,568.087341 405.726868,576.488342 411.131927,585.593323 
	C413.863434,589.723999 416.594940,593.854675 419.508911,598.644958 
	C424.337372,606.434265 429.165833,614.223511 434.113220,622.706726 
	C437.657562,628.178467 441.201904,633.650269 444.872559,639.811707 
	C445.407257,640.571716 445.941956,641.331665 446.495605,642.402283 
	C446.610779,642.609192 446.785980,642.698486 447.194580,643.393005 
	C452.516266,652.383789 457.837921,661.374573 463.538391,670.990173 
	C467.700500,677.322571 471.862610,683.654968 476.119598,690.605652 
	C476.520142,691.058899 476.920685,691.512085 477.372375,692.382263 
	C477.515137,692.643127 477.729675,692.813721 478.104980,693.606995 
	C482.068146,700.074341 486.031311,706.541626 490.123566,713.703003 
	C492.451202,717.625793 494.711639,721.590393 497.119141,725.463562 
	C504.060364,736.630249 511.060913,747.760071 518.206482,759.589111 
	C527.030396,773.919556 535.914185,788.213806 544.622437,802.614197 
	C546.171997,805.176575 547.852295,806.079834 550.890503,806.076843 
	C646.128967,805.983093 741.367432,806.002808 836.605957,805.989746 
	C837.975159,805.989563 839.344360,805.794250 840.871521,805.677979 
	C837.975769,800.858765 835.456909,796.401855 832.685669,792.107849 
	C826.183105,782.032349 819.559692,772.034851 812.808655,761.318787 
	C806.555298,751.099731 800.422791,740.804016 794.003235,730.690491 
	C790.168152,724.648499 785.883301,718.891968 781.863342,712.303894 
	C775.895996,702.916687 769.928589,693.529480 763.801270,683.451416 
	C759.813904,677.635437 755.826599,671.819458 751.771301,665.302490 
	C750.867249,663.761597 750.013000,662.188782 749.050781,660.685059 
	C743.567749,652.115845 738.058960,643.563110 732.347412,634.387451 
	C729.195984,629.589966 726.044617,624.792419 722.846985,619.295532 
	C721.898621,617.798096 720.976379,616.283386 719.997498,614.806274 
	C714.965027,607.212341 709.918030,599.627991 704.720581,591.372009 
	C700.993652,585.681458 697.266724,579.990967 693.323486,573.661377 
	C689.885193,568.438843 686.446899,563.216309 682.862671,557.305298 
	C678.609497,550.858948 674.356262,544.412598 669.810364,537.313599 
	C668.682129,535.359314 667.620850,533.362549 666.415466,531.457092 
	C650.865234,506.877289 635.284546,482.316711 619.732178,457.738281 
	C607.603638,438.570801 595.545715,419.358551 583.379456,400.215088 
	C571.172485,381.007477 558.851868,361.872070 546.614624,342.683594 
	C532.461670,320.491302 518.423828,298.225250 504.192383,276.083496 
	C488.251251,251.281784 472.095856,226.617661 456.193359,201.791351 
	C454.448029,199.066589 452.713501,198.020691 449.469635,198.032883 
	C422.143494,198.135681 394.816528,197.990234 367.489960,198.023621 
	C339.667969,198.057602 311.846161,198.209747 283.093811,198.152206 
	C276.066101,198.197647 269.038361,198.243088 261.084106,198.121887 
	C254.388123,198.183014 247.692123,198.244141 240.069229,198.161255 
	C233.049088,198.211975 226.028961,198.262680 218.085236,198.145096 
	C212.725388,198.200073 207.365540,198.255066 201.078903,198.149933 
	C190.025116,198.149933 178.971344,198.149933 166.909805,198.149933 
	C169.568848,202.288498 171.716507,205.549118 173.782516,208.860672 
	C183.548981,224.515030 193.293106,240.183334 203.247314,256.520081 
	C207.136581,262.690338 211.025848,268.860565 215.124298,275.701202 
	C216.455795,277.761139 217.780548,279.825439 219.119980,281.880188 
	C223.717468,288.932861 228.320099,295.982147 233.122803,303.708893 
	C238.922836,313.020752 244.667603,322.367706 250.544418,331.630859 
	C253.868683,336.870636 257.409821,341.972809 261.024719,347.815887 
	C268.027252,358.522675 275.029755,369.229462 282.111938,380.655273 
	C287.524261,389.262543 292.901337,397.892242 298.355988,406.472626 
	C311.044159,426.431458 323.814484,446.338196 336.468262,466.318756 
	C350.702759,488.795380 364.845734,511.329987 379.174530,534.462830 
	C379.255188,534.660400 379.335815,534.858032 379.340851,535.460693 
	C379.501282,535.738464 379.737701,535.840881 380.088074,535.983521 
M316.933960,588.526855 
	C307.528015,573.666443 297.997131,558.883362 288.743713,543.928589 
	C272.434296,517.570312 256.379974,491.054230 240.054413,464.706116 
	C228.277435,445.699066 216.221390,426.864990 204.312485,407.939514 
	C192.130646,388.580322 179.997177,369.190643 167.792328,349.845978 
	C165.404037,346.060577 162.786011,342.420166 160.273941,338.712860 
	C159.980621,338.896912 159.687317,339.080933 159.394012,339.264984 
	C159.394012,494.759064 159.394012,650.253113 159.394012,805.676392 
	C255.744644,805.676392 351.754089,805.676392 448.288269,805.676392 
	C447.303497,803.423950 446.711700,801.518372 445.707855,799.862488 
	C438.240875,787.545227 430.635620,775.311768 423.181000,762.987061 
	C408.497833,738.711548 393.954895,714.351074 379.217590,690.108582 
	C368.709198,672.822632 357.938080,655.696655 347.358032,638.453979 
	C337.292206,622.049316 327.322235,605.585754 316.933960,588.526855 
z"/>
<path fill="#02B6B6" opacity="1.000000" stroke="none" 
	d="
M379.028503,533.839355 
	C364.845734,511.329987 350.702759,488.795380 336.468262,466.318756 
	C323.814484,446.338196 311.044159,426.431458 298.355988,406.472626 
	C292.901337,397.892242 287.524261,389.262543 282.143250,379.951416 
	C286.132111,373.147400 287.359772,366.430267 286.957794,359.253479 
	C286.747284,355.495636 286.863892,351.708221 287.033142,347.943176 
	C287.249115,343.139709 287.978790,338.342255 287.930267,333.547821 
	C287.844604,325.082733 286.877380,316.609100 287.112579,308.162231 
	C287.489624,294.619751 288.730560,281.103149 289.241394,267.561829 
	C289.514343,260.326538 289.415161,253.028870 288.796967,245.818237 
	C287.437653,229.962357 285.641876,214.143890 284.024231,198.310150 
	C311.846161,198.209747 339.667969,198.057602 367.489960,198.023621 
	C394.816528,197.990234 422.143494,198.135681 449.469635,198.032883 
	C452.713501,198.020691 454.448029,199.066589 456.193359,201.791351 
	C472.095856,226.617661 488.251251,251.281784 504.192383,276.083496 
	C518.423828,298.225250 532.461670,320.491302 546.614624,342.683594 
	C558.851868,361.872070 571.172485,381.007477 583.379456,400.215088 
	C595.545715,419.358551 607.603638,438.570801 619.732178,457.738281 
	C635.284546,482.316711 650.865234,506.877289 666.415466,531.457092 
	C667.620850,533.362549 668.682129,535.359314 669.540283,537.646729 
	C667.101501,537.396301 664.391724,537.444641 662.851990,536.126343 
	C652.949280,527.648132 640.778442,525.549622 628.607849,524.155762 
	C616.827576,522.806763 604.906982,522.575745 593.037231,522.161804 
	C587.125427,521.955750 580.792175,521.229126 575.393188,523.002319 
	C571.239685,524.366333 568.169006,525.106567 564.213257,523.288574 
	C562.931946,522.699707 559.855713,523.237366 559.385864,524.164490 
	C557.740112,527.411987 555.674011,526.567749 553.119812,525.924988 
	C548.575195,524.781372 543.944153,523.140686 539.356506,523.163696 
	C524.535767,523.237854 509.519745,521.436462 495.051575,526.550232 
	C494.106506,526.884277 492.809814,526.249695 491.682159,526.036682 
	C483.078827,524.411316 474.889130,522.322754 465.694092,525.391907 
	C459.466614,527.470520 451.926727,525.636841 444.974487,525.514954 
	C442.149353,525.465393 439.326538,525.263000 436.501556,525.232788 
	C435.044556,525.217163 433.586517,525.486816 432.126465,525.521790 
	C428.503815,525.608521 424.865906,525.452332 421.259308,525.725647 
	C415.181091,526.186401 408.843414,528.305969 403.124298,527.167847 
	C395.555634,525.661743 389.195709,527.922363 382.575439,530.101501 
	C381.138672,530.574402 380.197784,532.553833 379.028503,533.839355 
z"/>
<path fill="#F8A455" opacity="1.000000" stroke="none" 
	d="
M317.122040,588.837524 
	C327.322235,605.585754 337.292206,622.049316 347.358032,638.453979 
	C357.938080,655.696655 368.709198,672.822632 379.217590,690.108582 
	C393.954895,714.351074 408.497833,738.711548 423.181000,762.987061 
	C430.635620,775.311768 438.240875,787.545227 445.707855,799.862488 
	C446.711700,801.518372 447.303497,803.423950 448.288269,805.676392 
	C351.754089,805.676392 255.744644,805.676392 159.394012,805.676392 
	C159.394012,650.253113 159.394012,494.759064 159.394012,339.264984 
	C159.687317,339.080933 159.980621,338.896912 160.273941,338.712860 
	C162.786011,342.420166 165.404037,346.060577 167.792328,349.845978 
	C179.997177,369.190643 192.130646,388.580322 204.312485,407.939514 
	C216.221390,426.864990 228.277435,445.699066 240.054413,464.706116 
	C256.379974,491.054230 272.434296,517.570312 288.743713,543.928589 
	C297.997131,558.883362 307.528015,573.666443 317.122040,588.837524 
z"/>
<path fill="#02B6B6" opacity="1.000000" stroke="none" 
	d="
M634.666138,325.072205 
	C627.960815,314.681458 621.198547,304.326874 614.562378,293.892059 
	C602.430359,274.815247 590.364502,255.696304 578.287170,236.584686 
	C570.531128,224.311218 562.804077,212.019409 554.040649,198.111740 
	C652.295105,197.888016 749.323730,198.085785 846.834351,197.991226 
	C846.834351,237.912460 846.834351,277.481628 846.395874,317.549500 
	C842.327576,318.259064 839.739380,321.979004 835.160950,320.022156 
	C830.339600,317.961487 825.250061,314.786407 819.330750,317.725281 
	C817.733948,318.518066 815.381226,318.040039 813.420105,317.792267 
	C809.862732,317.342865 806.332764,316.093658 802.802307,316.134064 
	C795.054688,316.222778 787.317566,316.990540 779.569580,317.330841 
	C767.987061,317.839478 756.399597,318.240631 744.811768,318.612518 
	C743.862976,318.642975 742.910034,317.932465 741.934875,317.849060 
	C733.939026,317.165375 725.942383,316.475128 717.935669,315.940826 
	C713.501099,315.644867 709.299194,317.976135 704.477051,314.956970 
	C701.543762,313.120422 695.669067,313.179443 692.682983,314.982574 
	C689.404724,316.962128 687.350952,317.156769 683.930847,316.306458 
	C681.260071,315.642395 678.132812,316.786255 675.213196,317.163788 
	C673.920715,317.330872 672.647766,317.692413 671.352722,317.789581 
	C663.643188,318.367981 655.837280,318.350464 648.251709,319.639404 
	C643.551208,320.438080 639.183350,323.194519 634.666138,325.072205 
z"/>
<path fill="#52C6CE" opacity="1.000000" stroke="none" 
	d="
M812.985229,762.005737 
	C819.559692,772.034851 826.183105,782.032349 832.685669,792.107849 
	C835.456909,796.401855 837.975769,800.858765 840.871521,805.677979 
	C839.344360,805.794250 837.975159,805.989563 836.605957,805.989746 
	C741.367432,806.002808 646.128967,805.983093 550.890503,806.076843 
	C547.852295,806.079834 546.171997,805.176575 544.622437,802.614197 
	C535.914185,788.213806 527.030396,773.919556 518.433960,759.049561 
	C522.013550,757.415405 525.365662,756.320801 529.379822,755.009949 
	C525.779480,750.570801 528.243958,748.393188 531.009338,746.615662 
	C533.664978,744.908691 536.574768,743.597229 539.475952,742.057251 
	C540.031982,743.463379 540.582764,745.022339 541.256042,746.526367 
	C542.994751,750.410767 545.021118,750.587524 547.671448,747.289185 
	C548.615845,746.113892 549.942688,745.245911 551.094910,744.237610 
	C551.896729,745.651489 552.698608,747.065369 554.065308,749.475342 
	C558.122986,743.196045 562.682129,747.271606 567.363037,748.882080 
	C568.402100,749.239563 569.716675,749.125610 570.829834,748.884583 
	C577.940002,747.344666 585.175049,746.159973 592.071106,743.935120 
	C596.212158,742.599121 598.946228,741.798340 600.510376,746.883972 
	C600.796204,747.813049 602.614685,748.270813 604.467285,749.397034 
	C604.100647,747.028503 603.914734,745.827576 603.690857,744.381226 
	C619.163574,747.120728 634.051880,744.317993 649.178894,742.941528 
	C649.440430,745.812622 650.231689,748.083923 653.958313,745.574768 
	C654.556274,745.172241 655.835815,745.921021 656.789185,745.879822 
	C659.301758,745.771423 661.816711,745.594238 664.314697,745.306030 
	C666.575500,745.045166 668.815247,744.601440 671.064270,744.238342 
	C673.271423,743.811951 675.112000,743.621704 676.941589,743.697205 
	C680.538940,743.845581 684.136414,744.387512 687.722107,744.297729 
	C690.509033,744.228027 693.265625,743.343201 696.058228,743.008484 
	C699.594116,742.584595 702.798401,747.711487 706.622925,743.697266 
	C706.702942,743.613342 707.252258,743.869385 707.500183,744.069092 
	C710.118225,746.178589 712.157654,745.645081 714.323486,743.146484 
	C714.936584,742.439209 716.971130,742.807556 718.326965,742.945679 
	C719.610962,743.076599 721.050720,744.125793 722.091553,743.779114 
	C726.918335,742.171631 731.699463,741.065979 736.810120,742.267578 
	C739.937622,743.002808 743.114380,743.537292 746.280273,744.098145 
	C749.126465,744.602356 752.604309,746.281067 754.729431,745.242920 
	C761.632507,741.870605 767.851685,744.851746 773.691772,747.003479 
	C777.110046,748.263123 779.432495,748.348206 782.401062,747.037048 
	C788.050171,744.541931 795.087708,746.172119 799.025085,750.598877 
	C802.377869,754.368286 805.800598,758.087219 809.405945,761.609863 
	C810.082275,762.270691 811.766235,761.900269 812.985229,762.005737 
z"/>
<path fill="#48C3CA" opacity="1.000000" stroke="none" 
	d="
M812.896973,761.662231 
	C811.766235,761.900269 810.082275,762.270691 809.405945,761.609863 
	C805.800598,758.087219 802.377869,754.368286 799.025085,750.598877 
	C795.087708,746.172119 788.050171,744.541931 782.401062,747.037048 
	C779.432495,748.348206 777.110046,748.263123 773.691772,747.003479 
	C767.851685,744.851746 761.632507,741.870605 754.729431,745.242920 
	C752.604309,746.281067 749.126465,744.602356 746.280273,744.098145 
	C743.114380,743.537292 739.937622,743.002808 736.810120,742.267578 
	C731.699463,741.065979 726.918335,742.171631 722.091553,743.779114 
	C721.050720,744.125793 719.610962,743.076599 718.326965,742.945679 
	C716.971130,742.807556 714.936584,742.439209 714.323486,743.146484 
	C712.157654,745.645081 710.118225,746.178589 707.500183,744.069092 
	C707.252258,743.869385 706.702942,743.613342 706.622925,743.697266 
	C702.798401,747.711487 699.594116,742.584595 696.058228,743.008484 
	C693.265625,743.343201 690.509033,744.228027 687.722107,744.297729 
	C684.136414,744.387512 680.538940,743.845581 676.941589,743.697205 
	C675.112000,743.621704 673.271423,743.811951 671.064270,744.238342 
	C668.815247,744.601440 666.575500,745.045166 664.314697,745.306030 
	C661.816711,745.594238 659.301758,745.771423 656.789185,745.879822 
	C655.835815,745.921021 654.556274,745.172241 653.958313,745.574768 
	C650.231689,748.083923 649.440430,745.812622 649.178894,742.941528 
	C634.051880,744.317993 619.163574,747.120728 603.690857,744.381226 
	C603.914734,745.827576 604.100647,747.028503 604.467285,749.397034 
	C602.614685,748.270813 600.796204,747.813049 600.510376,746.883972 
	C598.946228,741.798340 596.212158,742.599121 592.071106,743.935120 
	C585.175049,746.159973 577.940002,747.344666 570.829834,748.884583 
	C569.716675,749.125610 568.402100,749.239563 567.363037,748.882080 
	C562.682129,747.271606 558.122986,743.196045 554.065308,749.475342 
	C552.698608,747.065369 551.896729,745.651489 551.094910,744.237610 
	C549.942688,745.245911 548.615845,746.113892 547.671448,747.289185 
	C545.021118,750.587524 542.994751,750.410767 541.256042,746.526367 
	C540.582764,745.022339 540.031982,743.463379 539.475952,742.057251 
	C536.574768,743.597229 533.664978,744.908691 531.009338,746.615662 
	C528.243958,748.393188 525.779480,750.570801 529.379822,755.009949 
	C525.365662,756.320801 522.013550,757.415405 518.349854,758.707153 
	C511.060913,747.760071 504.060364,736.630249 497.119141,725.463562 
	C494.711639,721.590393 492.451202,717.625793 490.161957,713.040039 
	C492.908539,711.844788 495.616760,711.312622 498.581696,710.729980 
	C498.293396,710.031128 497.896393,709.169373 497.578247,708.279419 
	C496.450348,705.124634 497.772705,703.424805 500.858398,704.314636 
	C507.473511,706.222290 513.918213,704.159058 520.229797,703.366821 
	C530.145447,702.122253 539.506165,703.859497 549.029480,705.638611 
	C552.257629,706.241638 555.626465,706.751099 558.866211,706.492554 
	C565.178894,705.988831 571.525513,703.912781 577.705261,704.405334 
	C582.246765,704.767273 586.284851,705.769348 589.739624,702.229675 
	C592.988159,705.892822 595.865112,708.542542 600.205688,704.762817 
	C600.963379,704.102966 602.401978,704.188660 603.538330,704.006042 
	C611.657776,702.701416 620.100891,706.420593 628.091492,702.419678 
	C628.725830,702.102051 629.941406,702.862610 630.856934,703.202576 
	C637.723450,705.752258 644.729614,708.387573 651.985229,705.329224 
	C661.415588,701.354004 671.105896,703.573364 680.700012,703.396118 
	C681.265015,703.385620 682.048645,703.832581 682.379822,704.309875 
	C685.367920,708.617676 688.776855,706.509277 691.312439,704.308594 
	C693.739624,702.201843 695.716125,702.268066 698.531372,702.917053 
	C704.851501,704.373901 711.279175,705.365784 717.668701,706.515442 
	C718.139709,706.600159 718.657349,706.378845 719.151245,706.390076 
	C725.644714,706.537109 732.301147,705.859558 738.588074,707.080566 
	C745.841736,708.489319 752.774414,709.548889 759.994507,707.361694 
	C761.412659,706.932129 763.242432,707.468872 764.783386,707.907410 
	C770.478271,709.528503 776.131714,711.295166 781.800720,713.007141 
	C785.883301,718.891968 790.168152,724.648499 794.003235,730.690491 
	C800.422791,740.804016 806.555298,751.099731 812.896973,761.662231 
z"/>
<path fill="#30BCC1" opacity="1.000000" stroke="none" 
	d="
M732.558899,635.004822 
	C738.058960,643.563110 743.567749,652.115845 749.050781,660.685059 
	C750.013000,662.188782 750.867249,663.761597 751.432312,665.624329 
	C748.862000,665.365417 746.230347,663.725464 744.470093,664.390930 
	C737.544861,667.008484 731.041992,664.794983 724.429504,663.595581 
	C720.844543,662.945312 717.296021,661.192322 713.770508,661.294617 
	C705.044739,661.547791 696.348022,662.675903 687.627197,663.270386 
	C681.958740,663.656799 676.269348,663.752747 670.587341,663.904419 
	C669.610840,663.930542 668.630981,663.499207 667.641602,663.422729 
	C661.245422,662.928284 654.845581,662.099548 648.448242,662.110840 
	C642.050110,662.122192 635.658081,663.311646 629.255249,663.400330 
	C619.693665,663.532715 610.124451,663.004272 600.559753,663.046936 
	C594.782104,663.072693 588.888245,663.041077 583.263428,664.142578 
	C577.487915,665.273560 573.165222,661.039490 566.959290,661.882935 
	C557.349426,663.189026 547.195068,659.573486 537.508850,663.778381 
	C536.655518,664.148804 535.534485,663.926758 534.537231,663.937988 
	C523.937195,664.057617 513.337341,664.196289 502.736969,664.268799 
	C498.425323,664.298279 494.039673,663.670959 489.821930,664.276917 
	C485.966064,664.830811 482.340424,667.275879 478.603424,663.790588 
	C478.162872,663.379700 476.255188,664.410156 475.095764,664.925720 
	C471.100739,666.702271 467.135925,668.546753 463.159607,670.365356 
	C457.837921,661.374573 452.516266,652.383789 447.030151,642.923950 
	C446.754150,642.314453 446.624481,642.193298 446.476685,642.091614 
	C445.941956,641.331665 445.407257,640.571716 445.173859,639.307251 
	C447.419800,638.722961 449.376404,638.467346 451.306702,638.598694 
	C455.901093,638.911377 457.868347,636.839355 457.579559,632.340820 
	C457.527191,631.524841 459.403168,629.754517 460.242462,629.841370 
	C468.011078,630.644653 475.743317,631.794067 483.499176,632.735413 
	C484.403656,632.845215 485.540863,632.536316 486.309174,632.027405 
	C491.357635,628.683594 496.464020,630.046265 501.671997,631.506348 
	C503.641693,632.058655 505.762482,632.184448 507.824493,632.275269 
	C515.904358,632.631104 523.930115,628.132629 532.048218,631.951050 
	C537.479248,634.505554 542.923523,634.317871 548.498535,632.442139 
	C549.488464,632.109009 550.744141,632.609375 551.880005,632.658752 
	C559.332153,632.983154 566.783264,633.454346 574.238586,633.538696 
	C578.595459,633.588074 582.956421,632.949158 587.321167,632.734741 
	C590.695190,632.569031 594.684998,633.690735 597.313416,632.252502 
	C601.170471,630.141968 604.181519,630.742676 607.580261,632.270569 
	C611.893127,634.209412 616.118225,635.901672 620.807434,633.026917 
	C621.782776,632.429016 624.211914,632.527466 624.800232,633.253662 
	C627.886292,637.062195 630.750549,635.520813 633.979858,633.620178 
	C635.266663,632.863037 637.050598,632.497253 638.542847,632.639343 
	C641.392822,632.910828 644.173950,633.905884 647.023926,634.177063 
	C650.946350,634.550415 655.689453,633.211121 658.670837,634.980957 
	C663.438354,637.811096 666.371521,635.189575 670.094238,633.816833 
	C671.649353,633.243286 673.765442,633.041870 675.253784,633.624207 
	C684.387573,637.197754 693.346191,640.093933 701.764709,632.027283 
	C702.280457,631.533020 703.273804,631.415894 704.064026,631.349243 
	C709.593811,630.883240 714.783386,631.390442 720.110229,633.750061 
	C723.734009,635.355286 728.373535,634.667358 732.558899,635.004822 
z"/>
<path fill="#0FB6B9" opacity="1.000000" stroke="none" 
	d="
M379.101501,534.151123 
	C380.197784,532.553833 381.138672,530.574402 382.575439,530.101501 
	C389.195709,527.922363 395.555634,525.661743 403.124298,527.167847 
	C408.843414,528.305969 415.181091,526.186401 421.259308,525.725647 
	C424.865906,525.452332 428.503815,525.608521 432.126465,525.521790 
	C433.586517,525.486816 435.044556,525.217163 436.501556,525.232788 
	C439.326538,525.263000 442.149353,525.465393 444.974487,525.514954 
	C451.926727,525.636841 459.466614,527.470520 465.694092,525.391907 
	C474.889130,522.322754 483.078827,524.411316 491.682159,526.036682 
	C492.809814,526.249695 494.106506,526.884277 495.051575,526.550232 
	C509.519745,521.436462 524.535767,523.237854 539.356506,523.163696 
	C543.944153,523.140686 548.575195,524.781372 553.119812,525.924988 
	C555.674011,526.567749 557.740112,527.411987 559.385864,524.164490 
	C559.855713,523.237366 562.931946,522.699707 564.213257,523.288574 
	C568.169006,525.106567 571.239685,524.366333 575.393188,523.002319 
	C580.792175,521.229126 587.125427,521.955750 593.037231,522.161804 
	C604.906982,522.575745 616.827576,522.806763 628.607849,524.155762 
	C640.778442,525.549622 652.949280,527.648132 662.851990,536.126343 
	C664.391724,537.444641 667.101501,537.396301 669.686646,537.973022 
	C674.356262,544.412598 678.609497,550.858948 682.536621,557.678101 
	C673.929382,559.892578 666.825867,554.748413 658.942932,554.090210 
	C656.097656,553.852661 653.340271,552.170654 650.519592,552.102112 
	C641.593872,551.885376 632.655701,552.035461 623.725342,552.206299 
	C616.571472,552.343079 609.422485,552.728088 602.270386,552.974792 
	C601.109497,553.014893 599.895325,553.107910 598.787842,552.838684 
	C591.583801,551.087585 584.714783,552.771423 577.630737,554.087708 
	C569.099365,555.672974 560.365967,557.846375 551.646729,554.220154 
	C548.937988,553.093628 546.042236,552.338318 543.346191,555.121948 
	C542.460754,556.036133 540.187317,555.994629 538.623047,555.797852 
	C530.103088,554.726562 521.633240,553.198792 513.093994,552.356567 
	C505.069122,551.565125 496.983307,551.317932 488.917114,551.043396 
	C482.639099,550.829712 476.310547,551.370667 470.076111,550.797363 
	C462.765320,550.124939 455.833923,553.151978 448.288177,551.773315 
	C443.892303,550.970093 438.383514,548.659424 433.830658,552.628357 
	C433.677887,552.761536 433.195587,552.446411 432.875824,552.468689 
	C426.025177,552.945190 419.173218,553.407715 412.328278,553.957153 
	C410.850281,554.075806 409.174957,555.140991 407.972778,554.708252 
	C402.404663,552.703857 398.814514,556.027283 395.016418,558.990662 
	C390.384460,551.872925 385.752502,544.755188 380.966125,537.108948 
	C380.666840,536.352417 380.497925,536.143921 380.304993,535.954895 
	C380.304993,535.954895 380.088074,535.983521 379.982391,535.741089 
	C379.748138,535.325134 379.594727,535.177490 379.416443,535.055603 
	C379.335815,534.858032 379.255188,534.660400 379.101501,534.151123 
z"/>
<path fill="#13B6BA" opacity="1.000000" stroke="none" 
	d="
M634.779663,325.418213 
	C639.183350,323.194519 643.551208,320.438080 648.251709,319.639404 
	C655.837280,318.350464 663.643188,318.367981 671.352722,317.789581 
	C672.647766,317.692413 673.920715,317.330872 675.213196,317.163788 
	C678.132812,316.786255 681.260071,315.642395 683.930847,316.306458 
	C687.350952,317.156769 689.404724,316.962128 692.682983,314.982574 
	C695.669067,313.179443 701.543762,313.120422 704.477051,314.956970 
	C709.299194,317.976135 713.501099,315.644867 717.935669,315.940826 
	C725.942383,316.475128 733.939026,317.165375 741.934875,317.849060 
	C742.910034,317.932465 743.862976,318.642975 744.811768,318.612518 
	C756.399597,318.240631 767.987061,317.839478 779.569580,317.330841 
	C787.317566,316.990540 795.054688,316.222778 802.802307,316.134064 
	C806.332764,316.093658 809.862732,317.342865 813.420105,317.792267 
	C815.381226,318.040039 817.733948,318.518066 819.330750,317.725281 
	C825.250061,314.786407 830.339600,317.961487 835.160950,320.022156 
	C839.739380,321.979004 842.327576,318.259064 846.313354,318.009705 
	C846.718201,329.000427 846.767029,340.029663 846.351196,351.536438 
	C842.378052,352.866547 838.750916,354.756561 835.384277,354.371155 
	C826.398254,353.342346 817.534973,351.270996 808.595947,349.775238 
	C806.918457,349.494537 805.103210,349.866028 803.373779,350.100891 
	C799.319336,350.651459 795.286743,351.729492 791.230103,351.807861 
	C785.609131,351.916443 779.974609,351.295288 774.345032,351.003418 
	C771.362061,350.848755 768.369507,350.534912 765.395630,350.653748 
	C762.859924,350.755066 760.249573,351.067841 757.839172,351.821228 
	C751.765564,353.719513 746.010620,356.998688 739.219727,354.885284 
	C737.838684,354.455505 736.122498,355.088531 734.562805,355.250885 
	C732.619812,355.453125 730.614380,356.094147 728.749878,355.806610 
	C724.063660,355.083893 719.689026,353.457062 714.665771,355.353394 
	C709.297241,357.380127 703.700439,355.992889 698.163574,354.443695 
	C691.525757,352.586395 684.666565,351.519409 677.898560,350.132812 
	C677.596008,350.070770 677.108032,350.112732 676.941040,350.307465 
	C673.236267,354.626465 668.793091,352.804657 664.310791,352.165466 
	C662.578491,351.918457 660.582642,353.170349 658.775085,353.906738 
	C657.267517,354.520935 655.859375,355.379517 654.407227,356.129883 
	C647.902527,346.007996 641.397827,335.886108 634.779663,325.418213 
z"/>
<path fill="#23B9BE" opacity="1.000000" stroke="none" 
	d="
M654.549316,356.475128 
	C655.859375,355.379517 657.267517,354.520935 658.775085,353.906738 
	C660.582642,353.170349 662.578491,351.918457 664.310791,352.165466 
	C668.793091,352.804657 673.236267,354.626465 676.941040,350.307465 
	C677.108032,350.112732 677.596008,350.070770 677.898560,350.132812 
	C684.666565,351.519409 691.525757,352.586395 698.163574,354.443695 
	C703.700439,355.992889 709.297241,357.380127 714.665771,355.353394 
	C719.689026,353.457062 724.063660,355.083893 728.749878,355.806610 
	C730.614380,356.094147 732.619812,355.453125 734.562805,355.250885 
	C736.122498,355.088531 737.838684,354.455505 739.219727,354.885284 
	C746.010620,356.998688 751.765564,353.719513 757.839172,351.821228 
	C760.249573,351.067841 762.859924,350.755066 765.395630,350.653748 
	C768.369507,350.534912 771.362061,350.848755 774.345032,351.003418 
	C779.974609,351.295288 785.609131,351.916443 791.230103,351.807861 
	C795.286743,351.729492 799.319336,350.651459 803.373779,350.100891 
	C805.103210,349.866028 806.918457,349.494537 808.595947,349.775238 
	C817.534973,351.270996 826.398254,353.342346 835.384277,354.371155 
	C838.750916,354.756561 842.378052,352.866547 846.261780,351.995911 
	C846.698792,363.673859 846.760376,375.369873 846.391724,387.563293 
	C844.722107,389.064026 843.583069,390.241333 842.218628,391.027557 
	C840.437073,392.054169 838.413391,393.612793 836.605164,393.475677 
	C828.840942,392.886810 821.127930,391.655365 813.373108,390.892456 
	C811.009583,390.659882 808.571472,391.168976 806.168701,391.353546 
	C799.017639,391.902832 790.957214,394.794464 784.936829,392.448090 
	C776.596069,389.197357 769.812683,389.704926 762.299622,392.952301 
	C761.267883,393.398224 759.433105,393.517761 758.728210,392.909637 
	C756.332092,390.842407 754.475220,391.189880 752.120239,393.001343 
	C751.148560,393.748749 749.217773,393.806824 747.907898,393.466797 
	C739.215942,391.210602 730.583740,390.997498 721.767273,392.938263 
	C717.762878,393.819763 713.498962,393.449463 709.402222,394.009155 
	C706.636169,394.387054 703.840637,395.123016 701.272644,396.206818 
	C698.961670,397.182190 696.883545,399.105042 694.671509,396.352631 
	C692.164368,393.233093 689.706421,394.621887 687.292358,396.322418 
	C685.536499,397.559296 683.917542,398.990509 682.237549,400.335052 
	C674.461426,388.285034 666.684570,376.235474 658.910095,364.184448 
	C657.938965,362.679108 656.979858,361.166077 655.941833,359.141602 
	C655.761902,358.426453 655.622559,358.252594 655.450378,358.105042 
	C655.197388,357.676819 654.944397,357.248596 654.549316,356.475128 
z"/>
<path fill="#41C0C8" opacity="1.000000" stroke="none" 
	d="
M781.832031,712.655518 
	C776.131714,711.295166 770.478271,709.528503 764.783386,707.907410 
	C763.242432,707.468872 761.412659,706.932129 759.994507,707.361694 
	C752.774414,709.548889 745.841736,708.489319 738.588074,707.080566 
	C732.301147,705.859558 725.644714,706.537109 719.151245,706.390076 
	C718.657349,706.378845 718.139709,706.600159 717.668701,706.515442 
	C711.279175,705.365784 704.851501,704.373901 698.531372,702.917053 
	C695.716125,702.268066 693.739624,702.201843 691.312439,704.308594 
	C688.776855,706.509277 685.367920,708.617676 682.379822,704.309875 
	C682.048645,703.832581 681.265015,703.385620 680.700012,703.396118 
	C671.105896,703.573364 661.415588,701.354004 651.985229,705.329224 
	C644.729614,708.387573 637.723450,705.752258 630.856934,703.202576 
	C629.941406,702.862610 628.725830,702.102051 628.091492,702.419678 
	C620.100891,706.420593 611.657776,702.701416 603.538330,704.006042 
	C602.401978,704.188660 600.963379,704.102966 600.205688,704.762817 
	C595.865112,708.542542 592.988159,705.892822 589.739624,702.229675 
	C586.284851,705.769348 582.246765,704.767273 577.705261,704.405334 
	C571.525513,703.912781 565.178894,705.988831 558.866211,706.492554 
	C555.626465,706.751099 552.257629,706.241638 549.029480,705.638611 
	C539.506165,703.859497 530.145447,702.122253 520.229797,703.366821 
	C513.918213,704.159058 507.473511,706.222290 500.858398,704.314636 
	C497.772705,703.424805 496.450348,705.124634 497.578247,708.279419 
	C497.896393,709.169373 498.293396,710.031128 498.581696,710.729980 
	C495.616760,711.312622 492.908539,711.844788 490.097412,712.692993 
	C486.031311,706.541626 482.068146,700.074341 477.968201,693.079163 
	C477.690369,692.330750 477.520325,692.135376 477.321228,691.965271 
	C476.920685,691.512085 476.520142,691.058899 476.307617,690.057007 
	C481.347198,685.770691 486.131805,681.939148 491.113556,678.383972 
	C491.983368,677.763123 493.691010,678.212769 494.997864,678.326538 
	C499.512970,678.719788 504.024902,679.155029 508.532654,679.625916 
	C516.505127,680.458679 524.464905,681.432251 532.449890,682.114441 
	C534.545166,682.293518 536.714722,681.627686 538.847839,681.332642 
	C541.257751,680.999451 543.688354,680.249207 546.068298,680.389099 
	C550.460510,680.647156 554.593750,684.157776 559.304993,681.208618 
	C560.055542,680.738708 561.541504,681.371033 562.668640,681.590515 
	C564.915344,682.028137 567.198792,682.370789 569.378784,683.040161 
	C576.201355,685.135132 582.336304,680.614197 589.691895,681.962708 
	C601.058960,684.046753 613.054626,682.759033 624.783997,682.781555 
	C629.446289,682.790527 634.109192,682.479004 638.771912,682.314941 
	C651.943542,681.851685 665.130005,681.632385 678.281128,680.832336 
	C685.805298,680.374634 693.050476,683.253906 700.833130,681.247192 
	C706.208557,679.861267 712.286621,680.963562 718.029053,681.310730 
	C722.763123,681.597046 727.647705,683.504211 732.144165,682.757507 
	C741.540039,681.197266 749.717651,685.416382 758.426086,686.921936 
	C761.577026,687.466675 763.203003,687.280579 763.961243,684.142273 
	C769.928589,693.529480 775.895996,702.916687 781.832031,712.655518 
z"/>
<path fill="#23B9BE" opacity="1.000000" stroke="none" 
	d="
M433.994293,622.012817 
	C429.165833,614.223511 424.337372,606.434265 419.793121,598.311890 
	C424.069397,596.147522 428.060883,594.314941 432.054016,592.486023 
	C433.056000,592.027100 434.091705,591.137756 435.063599,591.199951 
	C440.793915,591.567078 446.246643,591.609192 451.915680,589.404907 
	C455.137421,588.152161 460.170349,584.079651 463.276642,590.511353 
	C463.307739,590.575745 463.588776,590.519348 464.101379,590.519348 
	C464.176453,589.463684 464.253326,588.382996 464.346283,587.076172 
	C466.018280,587.782288 467.216034,588.697266 468.444885,588.741150 
	C476.707245,589.035645 484.766876,587.390259 493.301086,589.971985 
	C500.329071,592.098145 508.492371,590.251526 516.120850,590.702148 
	C520.117188,590.938232 524.042297,592.342834 528.007629,593.181458 
	C528.625610,593.312134 529.297974,593.325134 529.926270,593.244690 
	C535.552979,592.524292 541.170227,591.200623 546.800232,591.149292 
	C557.495911,591.051697 568.198853,591.656982 578.897034,592.020386 
	C580.715454,592.082092 582.521362,592.463318 584.340454,592.568726 
	C585.975769,592.663513 587.639099,592.737305 589.259216,592.551331 
	C595.873291,591.792053 602.459778,590.446533 609.086060,590.231812 
	C616.726562,589.984314 624.415955,590.476624 632.050110,591.078918 
	C637.093323,591.476868 642.062744,592.740051 647.094177,593.393188 
	C648.793884,593.613892 650.607605,593.286987 652.324829,592.969971 
	C655.334473,592.414368 658.338623,591.034241 661.292664,591.166687 
	C665.251038,591.344299 669.020264,591.982117 673.173218,591.692871 
	C681.017944,591.146606 688.925781,594.759216 696.986206,592.213440 
	C697.518921,592.045227 698.258667,592.670105 698.884033,592.631775 
	C700.885986,592.509094 702.879395,592.247986 704.876099,592.040344 
	C709.918030,599.627991 714.965027,607.212341 719.997498,614.806274 
	C720.976379,616.283386 721.898621,617.798096 722.588501,619.554138 
	C719.669739,620.466309 715.619202,622.531006 714.596069,621.522949 
	C710.700012,617.684265 706.594543,616.947571 701.660278,618.026489 
	C701.279846,618.109680 700.794006,617.489624 700.324890,617.422791 
	C694.297180,616.562988 688.274841,615.205627 682.228149,615.080444 
	C677.095825,614.974243 671.948547,616.497131 666.776855,616.890503 
	C664.973450,617.027710 662.830322,616.329163 661.276672,615.334045 
	C658.392395,613.486938 656.255188,613.681824 653.777527,616.082764 
	C652.630493,617.194336 650.492493,618.067688 648.968079,617.857483 
	C644.514587,617.243408 639.738647,616.823792 635.848389,614.839539 
	C631.493042,612.618042 627.788452,612.984070 623.463135,614.089172 
	C620.697571,614.795654 617.632751,614.377136 614.702087,614.375916 
	C612.540710,614.374939 610.379822,614.197327 608.217773,614.169006 
	C607.102722,614.154358 605.986145,614.302734 604.869385,614.361328 
	C601.851685,614.519592 598.834717,614.751953 595.815125,614.796631 
	C593.319519,614.833557 590.819031,614.674683 588.323425,614.549805 
	C582.318970,614.249451 576.325989,611.474426 570.368103,615.736450 
	C568.293701,617.220337 564.864441,617.037170 562.033630,617.164795 
	C559.766968,617.267029 557.471802,616.666504 555.184814,616.418762 
	C553.901978,616.279846 552.557434,616.422852 551.331421,616.097107 
	C545.424194,614.527832 539.613831,612.505798 533.633850,611.334961 
	C530.489197,610.719360 527.068665,611.567139 523.770020,611.663940 
	C521.750427,611.723267 519.723450,611.661743 517.703918,611.566711 
	C513.553223,611.371399 509.371674,610.676880 505.264221,610.990845 
	C499.191956,611.455017 493.262177,615.520691 487.056671,611.100525 
	C485.821533,610.220703 483.865784,610.138184 482.227417,610.075073 
	C474.396271,609.773071 466.560181,609.595276 458.724945,609.411499 
	C458.269928,609.400818 457.812622,609.742981 457.346924,609.891052 
	C452.366119,611.475037 447.439514,614.083313 442.386261,614.358521 
	C436.713959,614.667419 434.878448,617.367798 433.994293,622.012817 
z"/>
<path fill="#13B6BA" opacity="1.000000" stroke="none" 
	d="
M395.085693,559.338501 
	C398.814514,556.027283 402.404663,552.703857 407.972778,554.708252 
	C409.174957,555.140991 410.850281,554.075806 412.328278,553.957153 
	C419.173218,553.407715 426.025177,552.945190 432.875824,552.468689 
	C433.195587,552.446411 433.677887,552.761536 433.830658,552.628357 
	C438.383514,548.659424 443.892303,550.970093 448.288177,551.773315 
	C455.833923,553.151978 462.765320,550.124939 470.076111,550.797363 
	C476.310547,551.370667 482.639099,550.829712 488.917114,551.043396 
	C496.983307,551.317932 505.069122,551.565125 513.093994,552.356567 
	C521.633240,553.198792 530.103088,554.726562 538.623047,555.797852 
	C540.187317,555.994629 542.460754,556.036133 543.346191,555.121948 
	C546.042236,552.338318 548.937988,553.093628 551.646729,554.220154 
	C560.365967,557.846375 569.099365,555.672974 577.630737,554.087708 
	C584.714783,552.771423 591.583801,551.087585 598.787842,552.838684 
	C599.895325,553.107910 601.109497,553.014893 602.270386,552.974792 
	C609.422485,552.728088 616.571472,552.343079 623.725342,552.206299 
	C632.655701,552.035461 641.593872,551.885376 650.519592,552.102112 
	C653.340271,552.170654 656.097656,553.852661 658.942932,554.090210 
	C666.825867,554.748413 673.929382,559.892578 682.609619,558.022339 
	C686.446899,563.216309 689.885193,568.438843 693.184692,574.312195 
	C691.016052,577.036865 688.966431,581.554504 685.896057,577.097229 
	C682.068176,571.540039 677.503845,570.038086 671.156799,570.772766 
	C666.099915,571.358093 660.921143,571.078430 655.806946,570.892944 
	C653.576355,570.811951 650.929077,568.978760 649.233459,569.709839 
	C642.333801,572.684631 635.382812,571.375488 628.346924,571.242065 
	C618.945557,571.063660 609.528381,571.510559 600.122986,571.832092 
	C595.208435,572.000061 590.304138,572.749023 585.395569,572.745544 
	C578.149963,572.740479 570.760132,571.292908 563.697327,572.307800 
	C555.626831,573.467468 547.729553,573.543335 539.700073,573.047485 
	C537.570618,572.915955 535.096619,572.718994 533.324036,573.620361 
	C529.583435,575.522461 527.887085,574.177368 527.153992,570.396729 
	C525.987244,570.879089 525.263672,571.327148 524.482544,571.478455 
	C515.345093,573.248535 506.287140,570.165222 496.770660,572.193726 
	C487.894714,574.085876 478.099731,571.753540 468.718658,571.138000 
	C465.745117,570.942932 462.801636,570.289429 459.844421,569.845642 
	C457.107086,569.926453 454.134125,570.934143 451.152557,570.960327 
	C445.270569,571.011963 439.385010,570.475830 433.497345,570.311218 
	C432.812256,570.292053 432.122742,571.119507 431.403503,571.493164 
	C429.720093,572.367737 427.988373,573.152405 426.327850,574.067200 
	C420.820587,577.101135 412.039856,575.517395 411.012817,584.889282 
	C405.726868,576.488342 400.440918,568.087341 395.085693,559.338501 
z"/>
<path fill="#2BBBC1" opacity="1.000000" stroke="none" 
	d="
M434.053772,622.359741 
	C434.878448,617.367798 436.713959,614.667419 442.386261,614.358521 
	C447.439514,614.083313 452.366119,611.475037 457.346924,609.891052 
	C457.812622,609.742981 458.269928,609.400818 458.724945,609.411499 
	C466.560181,609.595276 474.396271,609.773071 482.227417,610.075073 
	C483.865784,610.138184 485.821533,610.220703 487.056671,611.100525 
	C493.262177,615.520691 499.191956,611.455017 505.264221,610.990845 
	C509.371674,610.676880 513.553223,611.371399 517.703918,611.566711 
	C519.723450,611.661743 521.750427,611.723267 523.770020,611.663940 
	C527.068665,611.567139 530.489197,610.719360 533.633850,611.334961 
	C539.613831,612.505798 545.424194,614.527832 551.331421,616.097107 
	C552.557434,616.422852 553.901978,616.279846 555.184814,616.418762 
	C557.471802,616.666504 559.766968,617.267029 562.033630,617.164795 
	C564.864441,617.037170 568.293701,617.220337 570.368103,615.736450 
	C576.325989,611.474426 582.318970,614.249451 588.323425,614.549805 
	C590.819031,614.674683 593.319519,614.833557 595.815125,614.796631 
	C598.834717,614.751953 601.851685,614.519592 604.869385,614.361328 
	C605.986145,614.302734 607.102722,614.154358 608.217773,614.169006 
	C610.379822,614.197327 612.540710,614.374939 614.702087,614.375916 
	C617.632751,614.377136 620.697571,614.795654 623.463135,614.089172 
	C627.788452,612.984070 631.493042,612.618042 635.848389,614.839539 
	C639.738647,616.823792 644.514587,617.243408 648.968079,617.857483 
	C650.492493,618.067688 652.630493,617.194336 653.777527,616.082764 
	C656.255188,613.681824 658.392395,613.486938 661.276672,615.334045 
	C662.830322,616.329163 664.973450,617.027710 666.776855,616.890503 
	C671.948547,616.497131 677.095825,614.974243 682.228149,615.080444 
	C688.274841,615.205627 694.297180,616.562988 700.324890,617.422791 
	C700.794006,617.489624 701.279846,618.109680 701.660278,618.026489 
	C706.594543,616.947571 710.700012,617.684265 714.596069,621.522949 
	C715.619202,622.531006 719.669739,620.466309 722.611572,619.903809 
	C726.044617,624.792419 729.195984,629.589966 732.453125,634.696167 
	C728.373535,634.667358 723.734009,635.355286 720.110229,633.750061 
	C714.783386,631.390442 709.593811,630.883240 704.064026,631.349243 
	C703.273804,631.415894 702.280457,631.533020 701.764709,632.027283 
	C693.346191,640.093933 684.387573,637.197754 675.253784,633.624207 
	C673.765442,633.041870 671.649353,633.243286 670.094238,633.816833 
	C666.371521,635.189575 663.438354,637.811096 658.670837,634.980957 
	C655.689453,633.211121 650.946350,634.550415 647.023926,634.177063 
	C644.173950,633.905884 641.392822,632.910828 638.542847,632.639343 
	C637.050598,632.497253 635.266663,632.863037 633.979858,633.620178 
	C630.750549,635.520813 627.886292,637.062195 624.800232,633.253662 
	C624.211914,632.527466 621.782776,632.429016 620.807434,633.026917 
	C616.118225,635.901672 611.893127,634.209412 607.580261,632.270569 
	C604.181519,630.742676 601.170471,630.141968 597.313416,632.252502 
	C594.684998,633.690735 590.695190,632.569031 587.321167,632.734741 
	C582.956421,632.949158 578.595459,633.588074 574.238586,633.538696 
	C566.783264,633.454346 559.332153,632.983154 551.880005,632.658752 
	C550.744141,632.609375 549.488464,632.109009 548.498535,632.442139 
	C542.923523,634.317871 537.479248,634.505554 532.048218,631.951050 
	C523.930115,628.132629 515.904358,632.631104 507.824493,632.275269 
	C505.762482,632.184448 503.641693,632.058655 501.671997,631.506348 
	C496.464020,630.046265 491.357635,628.683594 486.309174,632.027405 
	C485.540863,632.536316 484.403656,632.845215 483.499176,632.735413 
	C475.743317,631.794067 468.011078,630.644653 460.242462,629.841370 
	C459.403168,629.754517 457.527191,631.524841 457.579559,632.340820 
	C457.868347,636.839355 455.901093,638.911377 451.306702,638.598694 
	C449.376404,638.467346 447.419800,638.722961 445.110687,638.962402 
	C441.201904,633.650269 437.657562,628.178467 434.053772,622.359741 
z"/>
<path fill="#1DB8BC" opacity="1.000000" stroke="none" 
	d="
M411.072388,585.241333 
	C412.039856,575.517395 420.820587,577.101135 426.327850,574.067200 
	C427.988373,573.152405 429.720093,572.367737 431.403503,571.493164 
	C432.122742,571.119507 432.812256,570.292053 433.497345,570.311218 
	C439.385010,570.475830 445.270569,571.011963 451.152557,570.960327 
	C454.134125,570.934143 457.107086,569.926453 459.844421,569.845642 
	C462.801636,570.289429 465.745117,570.942932 468.718658,571.138000 
	C478.099731,571.753540 487.894714,574.085876 496.770660,572.193726 
	C506.287140,570.165222 515.345093,573.248535 524.482544,571.478455 
	C525.263672,571.327148 525.987244,570.879089 527.153992,570.396729 
	C527.887085,574.177368 529.583435,575.522461 533.324036,573.620361 
	C535.096619,572.718994 537.570618,572.915955 539.700073,573.047485 
	C547.729553,573.543335 555.626831,573.467468 563.697327,572.307800 
	C570.760132,571.292908 578.149963,572.740479 585.395569,572.745544 
	C590.304138,572.749023 595.208435,572.000061 600.122986,571.832092 
	C609.528381,571.510559 618.945557,571.063660 628.346924,571.242065 
	C635.382812,571.375488 642.333801,572.684631 649.233459,569.709839 
	C650.929077,568.978760 653.576355,570.811951 655.806946,570.892944 
	C660.921143,571.078430 666.099915,571.358093 671.156799,570.772766 
	C677.503845,570.038086 682.068176,571.540039 685.896057,577.097229 
	C688.966431,581.554504 691.016052,577.036865 693.292847,574.631714 
	C697.266724,579.990967 700.993652,585.681458 704.798340,591.706177 
	C702.879395,592.247986 700.885986,592.509094 698.884033,592.631775 
	C698.258667,592.670105 697.518921,592.045227 696.986206,592.213440 
	C688.925781,594.759216 681.017944,591.146606 673.173218,591.692871 
	C669.020264,591.982117 665.251038,591.344299 661.292664,591.166687 
	C658.338623,591.034241 655.334473,592.414368 652.324829,592.969971 
	C650.607605,593.286987 648.793884,593.613892 647.094177,593.393188 
	C642.062744,592.740051 637.093323,591.476868 632.050110,591.078918 
	C624.415955,590.476624 616.726562,589.984314 609.086060,590.231812 
	C602.459778,590.446533 595.873291,591.792053 589.259216,592.551331 
	C587.639099,592.737305 585.975769,592.663513 584.340454,592.568726 
	C582.521362,592.463318 580.715454,592.082092 578.897034,592.020386 
	C568.198853,591.656982 557.495911,591.051697 546.800232,591.149292 
	C541.170227,591.200623 535.552979,592.524292 529.926270,593.244690 
	C529.297974,593.325134 528.625610,593.312134 528.007629,593.181458 
	C524.042297,592.342834 520.117188,590.938232 516.120850,590.702148 
	C508.492371,590.251526 500.329071,592.098145 493.301086,589.971985 
	C484.766876,587.390259 476.707245,589.035645 468.444885,588.741150 
	C467.216034,588.697266 466.018280,587.782288 464.346283,587.076172 
	C464.253326,588.382996 464.176453,589.463684 464.101379,590.519348 
	C463.588776,590.519348 463.307739,590.575745 463.276642,590.511353 
	C460.170349,584.079651 455.137421,588.152161 451.915680,589.404907 
	C446.246643,591.609192 440.793915,591.567078 435.063599,591.199951 
	C434.091705,591.137756 433.056000,592.027100 432.054016,592.486023 
	C428.060883,594.314941 424.069397,596.147522 419.701904,597.982056 
	C416.594940,593.854675 413.863434,589.723999 411.072388,585.241333 
z"/>
<path fill="#3ABFC6" opacity="1.000000" stroke="none" 
	d="
M763.881226,683.796875 
	C763.203003,687.280579 761.577026,687.466675 758.426086,686.921936 
	C749.717651,685.416382 741.540039,681.197266 732.144165,682.757507 
	C727.647705,683.504211 722.763123,681.597046 718.029053,681.310730 
	C712.286621,680.963562 706.208557,679.861267 700.833130,681.247192 
	C693.050476,683.253906 685.805298,680.374634 678.281128,680.832336 
	C665.130005,681.632385 651.943542,681.851685 638.771912,682.314941 
	C634.109192,682.479004 629.446289,682.790527 624.783997,682.781555 
	C613.054626,682.759033 601.058960,684.046753 589.691895,681.962708 
	C582.336304,680.614197 576.201355,685.135132 569.378784,683.040161 
	C567.198792,682.370789 564.915344,682.028137 562.668640,681.590515 
	C561.541504,681.371033 560.055542,680.738708 559.304993,681.208618 
	C554.593750,684.157776 550.460510,680.647156 546.068298,680.389099 
	C543.688354,680.249207 541.257751,680.999451 538.847839,681.332642 
	C536.714722,681.627686 534.545166,682.293518 532.449890,682.114441 
	C524.464905,681.432251 516.505127,680.458679 508.532654,679.625916 
	C504.024902,679.155029 499.512970,678.719788 494.997864,678.326538 
	C493.691010,678.212769 491.983368,677.763123 491.113556,678.383972 
	C486.131805,681.939148 481.347198,685.770691 476.260193,689.747864 
	C471.862610,683.654968 467.700500,677.322571 463.348999,670.677734 
	C467.135925,668.546753 471.100739,666.702271 475.095764,664.925720 
	C476.255188,664.410156 478.162872,663.379700 478.603424,663.790588 
	C482.340424,667.275879 485.966064,664.830811 489.821930,664.276917 
	C494.039673,663.670959 498.425323,664.298279 502.736969,664.268799 
	C513.337341,664.196289 523.937195,664.057617 534.537231,663.937988 
	C535.534485,663.926758 536.655518,664.148804 537.508850,663.778381 
	C547.195068,659.573486 557.349426,663.189026 566.959290,661.882935 
	C573.165222,661.039490 577.487915,665.273560 583.263428,664.142578 
	C588.888245,663.041077 594.782104,663.072693 600.559753,663.046936 
	C610.124451,663.004272 619.693665,663.532715 629.255249,663.400330 
	C635.658081,663.311646 642.050110,662.122192 648.448242,662.110840 
	C654.845581,662.099548 661.245422,662.928284 667.641602,663.422729 
	C668.630981,663.499207 669.610840,663.930542 670.587341,663.904419 
	C676.269348,663.752747 681.958740,663.656799 687.627197,663.270386 
	C696.348022,662.675903 705.044739,661.547791 713.770508,661.294617 
	C717.296021,661.192322 720.844543,662.945312 724.429504,663.595581 
	C731.041992,664.794983 737.544861,667.008484 744.470093,664.390930 
	C746.230347,663.725464 748.862000,665.365417 751.466309,665.974854 
	C755.826599,671.819458 759.813904,677.635437 763.881226,683.796875 
z"/>
<path fill="#52C6CE" opacity="1.000000" stroke="none" 
	d="
M846.752441,656.913330 
	C845.807190,660.883362 844.271240,657.824768 843.663208,656.952271 
	C840.748718,652.770142 838.008179,648.462646 835.308899,644.135376 
	C821.762329,622.418335 808.273987,600.664856 794.712036,578.957397 
	C787.183655,566.907227 779.551270,554.922119 772.067993,542.224487 
	C773.844971,539.993286 775.503906,538.427856 777.198425,536.901794 
	C779.091980,535.196472 781.862915,533.881653 782.750977,531.766602 
	C784.515320,527.564758 786.732910,527.510742 790.118469,529.396851 
	C794.362854,531.761292 798.658325,531.682251 802.961792,529.401489 
	C803.950500,528.877502 805.100586,528.355652 806.179260,528.349609 
	C819.986511,528.272095 833.544983,530.069397 846.802856,533.989624 
	C846.821655,565.726807 846.841675,597.464050 846.858032,629.201233 
	C846.861938,636.845764 846.853577,644.490234 846.621765,652.857178 
	C846.512634,654.690857 846.632568,655.802124 846.752441,656.913330 
z"/>
<path fill="#30BCC1" opacity="1.000000" stroke="none" 
	d="
M682.325195,400.694885 
	C683.917542,398.990509 685.536499,397.559296 687.292358,396.322418 
	C689.706421,394.621887 692.164368,393.233093 694.671509,396.352631 
	C696.883545,399.105042 698.961670,397.182190 701.272644,396.206818 
	C703.840637,395.123016 706.636169,394.387054 709.402222,394.009155 
	C713.498962,393.449463 717.762878,393.819763 721.767273,392.938263 
	C730.583740,390.997498 739.215942,391.210602 747.907898,393.466797 
	C749.217773,393.806824 751.148560,393.748749 752.120239,393.001343 
	C754.475220,391.189880 756.332092,390.842407 758.728210,392.909637 
	C759.433105,393.517761 761.267883,393.398224 762.299622,392.952301 
	C769.812683,389.704926 776.596069,389.197357 784.936829,392.448090 
	C790.957214,394.794464 799.017639,391.902832 806.168701,391.353546 
	C808.571472,391.168976 811.009583,390.659882 813.373108,390.892456 
	C821.127930,391.655365 828.840942,392.886810 836.605164,393.475677 
	C838.413391,393.612793 840.437073,392.054169 842.218628,391.027557 
	C843.583069,390.241333 844.722107,389.064026 846.300659,388.022919 
	C846.712463,400.347809 846.785034,412.710449 846.389343,425.540314 
	C843.634827,426.818787 841.392151,427.811707 839.046326,428.375275 
	C837.562195,428.731873 834.977966,429.072021 834.504333,428.353424 
	C830.547485,422.350891 825.131653,422.643463 819.005920,423.619751 
	C814.000061,424.417542 808.827698,424.327362 803.728394,424.340179 
	C798.278687,424.353851 792.800232,423.602173 787.385071,423.957642 
	C780.831055,424.387939 774.334961,425.668213 767.800537,426.472687 
	C766.922363,426.580780 765.978577,425.958221 765.044617,425.847595 
	C761.949463,425.480896 758.816162,424.764740 755.750305,424.970398 
	C750.361511,425.331909 745.458984,430.890350 739.580627,426.444275 
	C739.349060,426.269135 738.930542,426.268982 738.608398,426.296204 
	C729.990356,427.023590 721.373413,427.765411 712.701721,428.509430 
	C714.913818,431.820709 713.081055,434.011047 710.093567,435.961426 
	C708.912598,436.732422 708.026245,437.954773 707.005615,438.971588 
	C701.103027,429.914581 695.192810,420.862579 689.301636,411.798157 
	C686.983459,408.231262 684.707825,404.636658 682.325195,400.694885 
z"/>
<path fill="#3ABFC6" opacity="1.000000" stroke="none" 
	d="
M707.067139,439.320374 
	C708.026245,437.954773 708.912598,436.732422 710.093567,435.961426 
	C713.081055,434.011047 714.913818,431.820709 712.701721,428.509430 
	C721.373413,427.765411 729.990356,427.023590 738.608398,426.296204 
	C738.930542,426.268982 739.349060,426.269135 739.580627,426.444275 
	C745.458984,430.890350 750.361511,425.331909 755.750305,424.970398 
	C758.816162,424.764740 761.949463,425.480896 765.044617,425.847595 
	C765.978577,425.958221 766.922363,426.580780 767.800537,426.472687 
	C774.334961,425.668213 780.831055,424.387939 787.385071,423.957642 
	C792.800232,423.602173 798.278687,424.353851 803.728394,424.340179 
	C808.827698,424.327362 814.000061,424.417542 819.005920,423.619751 
	C825.131653,422.643463 830.547485,422.350891 834.504333,428.353424 
	C834.977966,429.072021 837.562195,428.731873 839.046326,428.375275 
	C841.392151,427.811707 843.634827,426.818787 846.302673,426.001434 
	C846.741516,435.693329 846.798828,445.391327 846.589966,455.557007 
	C846.323730,456.024658 845.957825,456.066833 845.550293,456.060333 
	C841.389954,456.302185 837.638916,456.693909 833.883423,456.742828 
	C831.769897,456.770386 829.646545,456.249786 827.532104,455.944794 
	C824.393127,455.492065 821.262329,454.662567 818.120605,454.625580 
	C813.559082,454.571899 808.993347,455.240112 804.425049,455.306732 
	C799.843933,455.373535 795.006775,452.005493 790.771118,456.548828 
	C790.354736,456.995483 789.097839,457.004089 788.377075,456.768768 
	C779.848755,453.984344 770.409363,460.464355 762.246094,454.186249 
	C755.297791,456.982788 747.459717,453.097931 740.548645,457.297424 
	C738.100586,458.784943 734.747681,459.161469 731.770691,459.312500 
	C727.219116,459.543396 724.642700,461.507416 723.995544,466.001678 
	C718.373230,457.224182 712.750916,448.446686 707.067139,439.320374 
z"/>
<path fill="#41C0C8" opacity="1.000000" stroke="none" 
	d="
M724.004456,466.366272 
	C724.642700,461.507416 727.219116,459.543396 731.770691,459.312500 
	C734.747681,459.161469 738.100586,458.784943 740.548645,457.297424 
	C747.459717,453.097931 755.297791,456.982788 762.246094,454.186249 
	C770.409363,460.464355 779.848755,453.984344 788.377075,456.768768 
	C789.097839,457.004089 790.354736,456.995483 790.771118,456.548828 
	C795.006775,452.005493 799.843933,455.373535 804.425049,455.306732 
	C808.993347,455.240112 813.559082,454.571899 818.120605,454.625580 
	C821.262329,454.662567 824.393127,455.492065 827.532104,455.944794 
	C829.646545,456.249786 831.769897,456.770386 833.883423,456.742828 
	C837.638916,456.693909 841.389954,456.302185 845.600952,456.316742 
	C846.301514,457.036682 846.543823,457.493744 846.786133,457.950806 
	C846.847717,466.683990 846.909363,475.417206 846.571411,484.658905 
	C844.944885,486.453766 843.294861,487.539612 842.571899,489.064880 
	C840.578125,493.271637 838.539856,492.862610 834.326965,491.395782 
	C828.664368,489.424133 822.670715,484.857849 815.986145,489.434326 
	C815.306030,489.899933 813.626343,488.966522 812.434021,488.604614 
	C811.392517,488.288452 810.325928,487.425476 809.370361,487.553101 
	C800.108521,488.789948 790.987732,488.671875 782.023865,485.618652 
	C777.673523,484.136902 774.841736,485.647644 772.691162,490.128326 
	C772.290955,490.962128 771.657166,491.983307 770.883240,492.287872 
	C766.917053,493.848877 762.869751,495.203613 759.133362,496.530151 
	C757.843201,495.640717 756.281616,494.564117 754.719971,493.487488 
	C754.411499,495.106720 753.957397,496.713989 753.823730,498.347534 
	C753.505859,502.231445 751.289001,503.896576 747.608459,504.030823 
	C747.481934,503.792847 747.355347,503.554871 747.016846,502.838318 
	C746.670654,502.233368 746.545837,502.098297 746.430359,501.954559 
	C746.430359,501.954559 746.109375,501.936920 745.955078,501.708679 
	C745.800842,501.480469 745.442566,501.166351 745.442566,501.166382 
	C738.299500,489.687866 731.156433,478.209381 724.004456,466.366272 
z"/>
<path fill="#13B6BA" opacity="1.000000" stroke="none" 
	d="
M283.559021,198.231171 
	C285.641876,214.143890 287.437653,229.962357 288.796967,245.818237 
	C289.415161,253.028870 289.514343,260.326538 289.241394,267.561829 
	C288.730560,281.103149 287.489624,294.619751 287.112579,308.162231 
	C286.877380,316.609100 287.844604,325.082733 287.930267,333.547821 
	C287.978790,338.342255 287.249115,343.139709 287.033142,347.943176 
	C286.863892,351.708221 286.747284,355.495636 286.957794,359.253479 
	C287.359772,366.430267 286.132111,373.147400 282.103424,379.591919 
	C275.029755,369.229462 268.027252,358.522675 261.293823,347.363464 
	C265.523163,344.123413 265.614227,340.504272 263.935730,336.405884 
	C263.330414,334.927856 262.635590,333.309479 262.673950,331.772430 
	C263.030212,317.489288 263.342499,303.199829 264.083954,288.933807 
	C264.451233,281.867035 265.714203,274.848419 266.512085,267.801208 
	C266.677277,266.342407 266.612091,264.853149 266.594025,263.378662 
	C266.494965,255.303284 266.235229,247.226807 266.309235,239.153259 
	C266.374176,232.065430 267.564270,224.904221 266.857239,217.917130 
	C266.185486,211.278763 263.699097,204.824020 262.010651,198.288513 
	C269.038361,198.243088 276.066101,198.197647 283.559021,198.231171 
z"/>
<path fill="#48C3CA" opacity="1.000000" stroke="none" 
	d="
M747.633545,504.345947 
	C751.289001,503.896576 753.505859,502.231445 753.823730,498.347534 
	C753.957397,496.713989 754.411499,495.106720 754.719971,493.487488 
	C756.281616,494.564117 757.843201,495.640717 759.133362,496.530151 
	C762.869751,495.203613 766.917053,493.848877 770.883240,492.287872 
	C771.657166,491.983307 772.290955,490.962128 772.691162,490.128326 
	C774.841736,485.647644 777.673523,484.136902 782.023865,485.618652 
	C790.987732,488.671875 800.108521,488.789948 809.370361,487.553101 
	C810.325928,487.425476 811.392517,488.288452 812.434021,488.604614 
	C813.626343,488.966522 815.306030,489.899933 815.986145,489.434326 
	C822.670715,484.857849 828.664368,489.424133 834.326965,491.395782 
	C838.539856,492.862610 840.578125,493.271637 842.571899,489.064880 
	C843.294861,487.539612 844.944885,486.453766 846.499512,485.083618 
	C846.871521,501.022217 846.915955,517.044617 846.881592,533.528320 
	C833.544983,530.069397 819.986511,528.272095 806.179260,528.349609 
	C805.100586,528.355652 803.950500,528.877502 802.961792,529.401489 
	C798.658325,531.682251 794.362854,531.761292 790.118469,529.396851 
	C786.732910,527.510742 784.515320,527.564758 782.750977,531.766602 
	C781.862915,533.881653 779.091980,535.196472 777.198425,536.901794 
	C775.503906,538.427856 773.844971,539.993286 771.996948,541.876587 
	C763.768616,529.694885 755.713684,517.177979 747.633545,504.345947 
z"/>
<path fill="#1DB8BC" opacity="1.000000" stroke="none" 
	d="
M261.547363,198.205200 
	C263.699097,204.824020 266.185486,211.278763 266.857239,217.917130 
	C267.564270,224.904221 266.374176,232.065430 266.309235,239.153259 
	C266.235229,247.226807 266.494965,255.303284 266.594025,263.378662 
	C266.612091,264.853149 266.677277,266.342407 266.512085,267.801208 
	C265.714203,274.848419 264.451233,281.867035 264.083954,288.933807 
	C263.342499,303.199829 263.030212,317.489288 262.673950,331.772430 
	C262.635590,333.309479 263.330414,334.927856 263.935730,336.405884 
	C265.614227,340.504272 265.523163,344.123413 261.208099,347.024017 
	C257.409821,341.972809 253.868683,336.870636 250.544418,331.630859 
	C244.667603,322.367706 238.922836,313.020752 233.381531,303.296814 
	C237.495300,302.054169 238.479156,299.210175 239.543488,295.767975 
	C241.055008,290.879456 245.024704,287.024841 244.690628,281.183044 
	C244.435516,276.721893 245.698212,272.175934 246.266251,267.665222 
	C246.843323,263.082886 248.584473,258.257263 247.715805,253.963013 
	C245.842712,244.703506 248.860580,235.406433 245.772507,226.024292 
	C242.872986,217.214951 242.487717,207.578033 240.996140,198.305267 
	C247.692123,198.244141 254.388123,198.183014 261.547363,198.205200 
z"/>
<path fill="#2BBBC1" opacity="1.000000" stroke="none" 
	d="
M240.532684,198.233261 
	C242.487717,207.578033 242.872986,217.214951 245.772507,226.024292 
	C248.860580,235.406433 245.842712,244.703506 247.715805,253.963013 
	C248.584473,258.257263 246.843323,263.082886 246.266251,267.665222 
	C245.698212,272.175934 244.435516,276.721893 244.690628,281.183044 
	C245.024704,287.024841 241.055008,290.879456 239.543488,295.767975 
	C238.479156,299.210175 237.495300,302.054169 233.280502,302.958740 
	C228.320099,295.982147 223.717468,288.932861 219.119980,281.880188 
	C217.780548,279.825439 216.455795,277.761139 215.359344,275.252197 
	C216.176514,274.236145 217.026047,273.774994 217.299118,273.085510 
	C219.843002,266.662415 222.337097,260.218140 224.710571,253.730591 
	C225.085281,252.706390 224.889618,251.425385 224.781006,250.279846 
	C223.540665,237.198151 222.326523,224.113403 220.966003,211.043991 
	C220.522003,206.778763 219.672745,202.555725 219.008820,198.313385 
	C226.028961,198.262680 233.049088,198.211975 240.532684,198.233261 
z"/>
<path fill="#30BCC1" opacity="1.000000" stroke="none" 
	d="
M218.547028,198.229248 
	C219.672745,202.555725 220.522003,206.778763 220.966003,211.043991 
	C222.326523,224.113403 223.540665,237.198151 224.781006,250.279846 
	C224.889618,251.425385 225.085281,252.706390 224.710571,253.730591 
	C222.337097,260.218140 219.843002,266.662415 217.299118,273.085510 
	C217.026047,273.774994 216.176514,274.236145 215.254730,274.916992 
	C211.025848,268.860565 207.136581,262.690338 203.131989,255.730194 
	C203.012985,252.951843 202.769440,250.929031 203.048111,248.980942 
	C204.123947,241.460449 201.491592,233.863403 204.582565,226.207581 
	C206.174789,222.263916 206.524536,216.138016 204.484543,212.803894 
	C201.454620,207.851852 202.093109,203.236679 202.005692,198.310043 
	C207.365540,198.255066 212.725388,198.200073 218.547028,198.229248 
z"/>
<path fill="#3ABFC6" opacity="1.000000" stroke="none" 
	d="
M201.542297,198.229980 
	C202.093109,203.236679 201.454620,207.851852 204.484543,212.803894 
	C206.524536,216.138016 206.174789,222.263916 204.582565,226.207581 
	C201.491592,233.863403 204.123947,241.460449 203.048111,248.980942 
	C202.769440,250.929031 203.012985,252.951843 203.030945,255.393494 
	C193.293106,240.183334 183.548981,224.515030 173.782516,208.860672 
	C171.716507,205.549118 169.568848,202.288498 166.909805,198.149933 
	C178.971344,198.149933 190.025116,198.149933 201.542297,198.229980 
z"/>
<path fill="#48C3CA" opacity="1.000000" stroke="none" 
	d="
M846.819580,656.532776 
	C846.632568,655.802124 846.512634,654.690857 846.543823,653.324463 
	C846.758789,654.096863 846.822754,655.124573 846.819580,656.532776 
z"/>
<path fill="#30BCC1" opacity="1.000000" stroke="none" 
	d="
M846.840332,457.627228 
	C846.543823,457.493744 846.301514,457.036682 846.008484,456.323242 
	C845.957825,456.066833 846.323730,456.024658 846.507874,456.020264 
	C846.759460,456.445099 846.826965,456.874390 846.840332,457.627228 
z"/>
<path fill="#02B6B6" opacity="1.000000" stroke="none" 
	d="
M380.345154,536.163208 
	C380.497925,536.143921 380.666840,536.352417 380.908203,536.757202 
	C380.735443,536.815552 380.528992,536.628052 380.345154,536.163208 
z"/>
<path fill="#02B6B6" opacity="1.000000" stroke="none" 
	d="
M379.378662,535.258179 
	C379.594727,535.177490 379.748138,535.325134 379.963440,535.633301 
	C379.737701,535.840881 379.501282,535.738464 379.378662,535.258179 
z"/>
<path fill="#48C3CA" opacity="1.000000" stroke="none" 
	d="
M746.454041,502.111115 
	C746.545837,502.098297 746.670654,502.233368 746.909241,502.448608 
	C746.775513,502.565613 746.596863,502.475677 746.454041,502.111115 
z"/>
<path fill="#48C3CA" opacity="1.000000" stroke="none" 
	d="
M745.427734,501.321899 
	C745.442566,501.166351 745.800842,501.480469 745.883423,501.564880 
	C745.965942,501.649261 745.654541,501.675385 745.654541,501.675385 
	C745.654541,501.675385 745.412964,501.477417 745.427734,501.321899 
z"/>
<path fill="#2BBBC1" opacity="1.000000" stroke="none" 
	d="
M446.486145,642.246948 
	C446.624481,642.193298 446.754150,642.314453 446.943420,642.562622 
	C446.785980,642.698486 446.610779,642.609192 446.486145,642.246948 
z"/>
<path fill="#13B6BA" opacity="1.000000" stroke="none" 
	d="
M655.450317,358.288208 
	C655.622559,358.252594 655.761902,358.426453 655.934570,358.780945 
	C655.755798,358.853455 655.572327,358.698792 655.450317,358.288208 
z"/>
<path fill="#3ABFC6" opacity="1.000000" stroke="none" 
	d="
M477.346802,692.173767 
	C477.520325,692.135376 477.690369,692.330750 477.923706,692.722717 
	C477.729675,692.813721 477.515137,692.643127 477.346802,692.173767 
z"/>
</svg>